<?xml version="1.0" encoding="utf-8"?>
<!-- Generator: Adobe Illustrator 16.0.0, SVG Export Plug-In . SVG Version: 6.00 Build 0)  -->
<!DOCTYPE svg PUBLIC "-//W3C//DTD SVG 1.1//EN" "http://www.w3.org/Graphics/SVG/1.1/DTD/svg11.dtd">
<svg version="1.1" id="Layer_1" xmlns="http://www.w3.org/2000/svg" xmlns:xlink="http://www.w3.org/1999/xlink" x="0px" y="0px"
	 width="30.004px" height="53.714px" viewBox="0 0 30.004 53.714" enable-background="new 0 0 30.004 53.714" xml:space="preserve">
<g>
	<polygon points="3.111,52.725 0.99,50.604 24.771,26.821 1.062,3.111 3.184,0.99 29.014,26.821 	"/>
	<path fill="#FFFFFF" d="M3.111,52.725L0.99,50.604l23.781-23.783L1.062,3.111L3.184,0.99l25.83,25.831L3.111,52.725 M3.111,53.714
		l0.495-0.494l25.902-25.904l0.495-0.495l-0.495-0.495L3.679,0.494L3.184,0L2.688,0.494L0.567,2.615L0.072,3.111l0.495,0.494
		l23.214,23.215L0.495,50.109L0,50.604l0.495,0.495l2.121,2.121L3.111,53.714L3.111,53.714z"/>
</g>
</svg>
