<?xml version="1.0" encoding="utf-8"?>
<!-- Generator: Adobe Illustrator 16.0.0, SVG Export Plug-In . SVG Version: 6.00 Build 0)  -->
<!DOCTYPE svg PUBLIC "-//W3C//DTD SVG 1.1//EN" "http://www.w3.org/Graphics/SVG/1.1/DTD/svg11.dtd">
<svg version="1.1" xmlns="http://www.w3.org/2000/svg" xmlns:xlink="http://www.w3.org/1999/xlink" x="0px" y="0px"
	 width="30.004px" height="53.715px" viewBox="0 0 30.004 53.715" enable-background="new 0 0 30.004 53.715" xml:space="preserve">
<g id="Layer_2">
</g>
<g id="Layer_1">
	<g>
		<polygon points="26.893,0.99 29.014,3.111 5.232,26.894 28.941,50.604 26.82,52.725 0.99,26.894 		"/>
		<path fill="#FFFFFF" d="M26.893,0.99l2.121,2.121L5.232,26.894l23.709,23.71l-2.121,2.121L0.99,26.894L26.893,0.99 M26.893,0
			l-0.495,0.495L0.495,26.399L0,26.894l0.495,0.495l25.83,25.831l0.495,0.495l0.495-0.495l2.121-2.121l0.495-0.495l-0.495-0.495
			L6.223,26.894L29.509,3.606l0.495-0.495l-0.495-0.495l-2.121-2.121L26.893,0L26.893,0z"/>
	</g>
</g>
</svg>
